<mxfile host="app.diagrams.net" modified="2023-10-06T17:18:25.048Z" agent="Mozilla/5.0 (Windows NT 10.0; Win64; x64) AppleWebKit/537.36 (KHTML, like Gecko) Chrome/115.0.0.0 Safari/537.36" etag="lmrX2IDye78PxQk6xS-_" version="22.0.3" type="device">
  <diagram name="Página-1" id="iguQESZo3ziAnmQg2wc0">
    <mxGraphModel dx="1434" dy="782" grid="1" gridSize="10" guides="1" tooltips="1" connect="1" arrows="1" fold="1" page="1" pageScale="1" pageWidth="827" pageHeight="1169" math="0" shadow="0">
      <root>
        <mxCell id="0" />
        <mxCell id="1" parent="0" />
        <mxCell id="KtMn4eeaHGcOfa2TcQQD-1" style="rounded=0;orthogonalLoop=1;jettySize=auto;html=1;exitX=0.193;exitY=-0.008;exitDx=0;exitDy=0;entryX=1;entryY=1;entryDx=0;entryDy=0;exitPerimeter=0;" parent="1" source="KtMn4eeaHGcOfa2TcQQD-5" target="KtMn4eeaHGcOfa2TcQQD-23" edge="1">
          <mxGeometry relative="1" as="geometry" />
        </mxCell>
        <mxCell id="KtMn4eeaHGcOfa2TcQQD-2" style="rounded=0;orthogonalLoop=1;jettySize=auto;html=1;exitX=0.435;exitY=-0.008;exitDx=0;exitDy=0;entryX=0.75;entryY=1;entryDx=0;entryDy=0;exitPerimeter=0;" parent="1" source="KtMn4eeaHGcOfa2TcQQD-5" target="KtMn4eeaHGcOfa2TcQQD-25" edge="1">
          <mxGeometry relative="1" as="geometry" />
        </mxCell>
        <mxCell id="KtMn4eeaHGcOfa2TcQQD-3" style="rounded=0;orthogonalLoop=1;jettySize=auto;html=1;exitX=0.75;exitY=0;exitDx=0;exitDy=0;entryX=0.75;entryY=1;entryDx=0;entryDy=0;" parent="1" source="KtMn4eeaHGcOfa2TcQQD-5" target="KtMn4eeaHGcOfa2TcQQD-27" edge="1">
          <mxGeometry relative="1" as="geometry" />
        </mxCell>
        <mxCell id="KtMn4eeaHGcOfa2TcQQD-4" style="rounded=0;orthogonalLoop=1;jettySize=auto;html=1;exitX=0.935;exitY=-0.008;exitDx=0;exitDy=0;entryX=0.25;entryY=1;entryDx=0;entryDy=0;exitPerimeter=0;" parent="1" source="KtMn4eeaHGcOfa2TcQQD-5" target="KtMn4eeaHGcOfa2TcQQD-29" edge="1">
          <mxGeometry relative="1" as="geometry" />
        </mxCell>
        <mxCell id="KtMn4eeaHGcOfa2TcQQD-5" value="&lt;font style=&quot;font-size: 23px;&quot;&gt;Eficiencia en la gestión de la información dentro de la empresa en los procesos de Gestión de Proveedores y Facturación.&lt;/font&gt;" style="rounded=1;whiteSpace=wrap;html=1;fillColor=#0050ef;strokeColor=#001DBC;fontColor=#ffffff;" parent="1" vertex="1">
          <mxGeometry x="44" y="340" width="740" height="130" as="geometry" />
        </mxCell>
        <mxCell id="KtMn4eeaHGcOfa2TcQQD-6" style="rounded=0;orthogonalLoop=1;jettySize=auto;html=1;exitX=0.75;exitY=0;exitDx=0;exitDy=0;entryX=0.25;entryY=1;entryDx=0;entryDy=0;" parent="1" source="KtMn4eeaHGcOfa2TcQQD-7" target="KtMn4eeaHGcOfa2TcQQD-5" edge="1">
          <mxGeometry relative="1" as="geometry" />
        </mxCell>
        <mxCell id="KtMn4eeaHGcOfa2TcQQD-7" value="Facturación automática" style="rounded=0;whiteSpace=wrap;html=1;fillColor=#60a917;strokeColor=#2D7600;fontSize=16;fontColor=#ffffff;" parent="1" vertex="1">
          <mxGeometry x="80" y="520" width="160" height="60" as="geometry" />
        </mxCell>
        <mxCell id="KtMn4eeaHGcOfa2TcQQD-8" style="rounded=0;orthogonalLoop=1;jettySize=auto;html=1;exitX=0.75;exitY=0;exitDx=0;exitDy=0;entryX=0.25;entryY=1;entryDx=0;entryDy=0;" parent="1" source="KtMn4eeaHGcOfa2TcQQD-9" target="KtMn4eeaHGcOfa2TcQQD-7" edge="1">
          <mxGeometry relative="1" as="geometry" />
        </mxCell>
        <mxCell id="KtMn4eeaHGcOfa2TcQQD-9" value="Planeación presupuestal adecuada" style="rounded=0;whiteSpace=wrap;html=1;fillColor=#d5e8d4;strokeColor=#82b366;fontSize=15;" parent="1" vertex="1">
          <mxGeometry y="620" width="130" height="60" as="geometry" />
        </mxCell>
        <mxCell id="KtMn4eeaHGcOfa2TcQQD-10" style="rounded=0;orthogonalLoop=1;jettySize=auto;html=1;exitX=0.5;exitY=0;exitDx=0;exitDy=0;entryX=0.75;entryY=1;entryDx=0;entryDy=0;" parent="1" source="KtMn4eeaHGcOfa2TcQQD-11" target="KtMn4eeaHGcOfa2TcQQD-7" edge="1">
          <mxGeometry relative="1" as="geometry" />
        </mxCell>
        <mxCell id="KtMn4eeaHGcOfa2TcQQD-11" value="Alta visión tecnológica" style="rounded=0;whiteSpace=wrap;html=1;fillColor=#d5e8d4;strokeColor=#82b366;fontSize=15;" parent="1" vertex="1">
          <mxGeometry x="160" y="620" width="100" height="60" as="geometry" />
        </mxCell>
        <mxCell id="KtMn4eeaHGcOfa2TcQQD-12" style="rounded=0;orthogonalLoop=1;jettySize=auto;html=1;exitX=0.5;exitY=0;exitDx=0;exitDy=0;entryX=0.5;entryY=1;entryDx=0;entryDy=0;" parent="1" source="KtMn4eeaHGcOfa2TcQQD-13" target="KtMn4eeaHGcOfa2TcQQD-5" edge="1">
          <mxGeometry relative="1" as="geometry" />
        </mxCell>
        <mxCell id="KtMn4eeaHGcOfa2TcQQD-13" value="Buena logística en el almacenamiento de la información" style="rounded=0;whiteSpace=wrap;html=1;fillColor=#60a917;strokeColor=#2D7600;fontSize=16;fontColor=#ffffff;" parent="1" vertex="1">
          <mxGeometry x="314" y="520" width="160" height="60" as="geometry" />
        </mxCell>
        <mxCell id="KtMn4eeaHGcOfa2TcQQD-14" style="rounded=0;orthogonalLoop=1;jettySize=auto;html=1;exitX=0.5;exitY=0;exitDx=0;exitDy=0;entryX=0.5;entryY=1;entryDx=0;entryDy=0;" parent="1" source="KtMn4eeaHGcOfa2TcQQD-15" target="KtMn4eeaHGcOfa2TcQQD-13" edge="1">
          <mxGeometry relative="1" as="geometry" />
        </mxCell>
        <mxCell id="KtMn4eeaHGcOfa2TcQQD-15" value="Orden de archivos" style="rounded=0;whiteSpace=wrap;html=1;fillColor=#d5e8d4;strokeColor=#82b366;fontSize=15;" parent="1" vertex="1">
          <mxGeometry x="334" y="620" width="120" height="60" as="geometry" />
        </mxCell>
        <mxCell id="KtMn4eeaHGcOfa2TcQQD-16" style="rounded=0;orthogonalLoop=1;jettySize=auto;html=1;exitX=0.5;exitY=0;exitDx=0;exitDy=0;entryX=0.75;entryY=1;entryDx=0;entryDy=0;" parent="1" source="KtMn4eeaHGcOfa2TcQQD-17" target="KtMn4eeaHGcOfa2TcQQD-5" edge="1">
          <mxGeometry relative="1" as="geometry" />
        </mxCell>
        <mxCell id="KtMn4eeaHGcOfa2TcQQD-17" value="Eficiente gestión de la información de los clientes" style="rounded=0;whiteSpace=wrap;html=1;fillColor=#60a917;strokeColor=#2D7600;fontSize=16;fontColor=#ffffff;" parent="1" vertex="1">
          <mxGeometry x="540" y="520" width="160" height="60" as="geometry" />
        </mxCell>
        <mxCell id="KtMn4eeaHGcOfa2TcQQD-18" style="rounded=0;orthogonalLoop=1;jettySize=auto;html=1;exitX=0.5;exitY=0;exitDx=0;exitDy=0;entryX=0.25;entryY=1;entryDx=0;entryDy=0;" parent="1" source="KtMn4eeaHGcOfa2TcQQD-19" target="KtMn4eeaHGcOfa2TcQQD-17" edge="1">
          <mxGeometry relative="1" as="geometry" />
        </mxCell>
        <mxCell id="KtMn4eeaHGcOfa2TcQQD-19" value="control en las compras de los clientes" style="rounded=0;whiteSpace=wrap;html=1;fillColor=#d5e8d4;strokeColor=#82b366;fontSize=15;" parent="1" vertex="1">
          <mxGeometry x="500" y="620" width="120" height="60" as="geometry" />
        </mxCell>
        <mxCell id="KtMn4eeaHGcOfa2TcQQD-20" style="rounded=0;orthogonalLoop=1;jettySize=auto;html=1;exitX=0.5;exitY=0;exitDx=0;exitDy=0;entryX=0.75;entryY=1;entryDx=0;entryDy=0;" parent="1" source="KtMn4eeaHGcOfa2TcQQD-21" target="KtMn4eeaHGcOfa2TcQQD-17" edge="1">
          <mxGeometry relative="1" as="geometry" />
        </mxCell>
        <mxCell id="KtMn4eeaHGcOfa2TcQQD-21" value="Perfilación de los clientes" style="rounded=0;whiteSpace=wrap;html=1;fillColor=#d5e8d4;strokeColor=#82b366;fontSize=15;" parent="1" vertex="1">
          <mxGeometry x="640" y="620" width="130" height="60" as="geometry" />
        </mxCell>
        <mxCell id="KtMn4eeaHGcOfa2TcQQD-22" style="rounded=0;orthogonalLoop=1;jettySize=auto;html=1;exitX=0.75;exitY=0;exitDx=0;exitDy=0;entryX=0.25;entryY=1;entryDx=0;entryDy=0;" parent="1" source="KtMn4eeaHGcOfa2TcQQD-23" target="KtMn4eeaHGcOfa2TcQQD-31" edge="1">
          <mxGeometry relative="1" as="geometry" />
        </mxCell>
        <mxCell id="KtMn4eeaHGcOfa2TcQQD-23" value="Agilidad en el acceso a la información" style="rounded=0;whiteSpace=wrap;html=1;fillColor=#6d8764;strokeColor=#3A5431;fontSize=16;fontColor=#ffffff;" parent="1" vertex="1">
          <mxGeometry y="230" width="160" height="60" as="geometry" />
        </mxCell>
        <mxCell id="KtMn4eeaHGcOfa2TcQQD-24" style="rounded=0;orthogonalLoop=1;jettySize=auto;html=1;exitX=0.25;exitY=0;exitDx=0;exitDy=0;entryX=0.75;entryY=1;entryDx=0;entryDy=0;" parent="1" source="KtMn4eeaHGcOfa2TcQQD-25" target="KtMn4eeaHGcOfa2TcQQD-31" edge="1">
          <mxGeometry relative="1" as="geometry" />
        </mxCell>
        <mxCell id="KtMn4eeaHGcOfa2TcQQD-25" value="Confiabilidad de documentos" style="rounded=0;whiteSpace=wrap;html=1;fillColor=#6d8764;strokeColor=#3A5431;fontSize=16;fontColor=#ffffff;" parent="1" vertex="1">
          <mxGeometry x="234" y="230" width="160" height="60" as="geometry" />
        </mxCell>
        <mxCell id="KtMn4eeaHGcOfa2TcQQD-26" style="rounded=0;orthogonalLoop=1;jettySize=auto;html=1;exitX=0.75;exitY=0;exitDx=0;exitDy=0;entryX=0.25;entryY=1;entryDx=0;entryDy=0;" parent="1" source="KtMn4eeaHGcOfa2TcQQD-27" target="KtMn4eeaHGcOfa2TcQQD-30" edge="1">
          <mxGeometry relative="1" as="geometry" />
        </mxCell>
        <mxCell id="KtMn4eeaHGcOfa2TcQQD-27" value="&amp;nbsp;Fidelización de clientes" style="rounded=0;whiteSpace=wrap;html=1;fillColor=#6d8764;strokeColor=#3A5431;fontSize=16;fontColor=#ffffff;" parent="1" vertex="1">
          <mxGeometry x="460" y="230" width="160" height="60" as="geometry" />
        </mxCell>
        <mxCell id="KtMn4eeaHGcOfa2TcQQD-28" style="rounded=0;orthogonalLoop=1;jettySize=auto;html=1;exitX=0.25;exitY=0;exitDx=0;exitDy=0;entryX=0.75;entryY=1;entryDx=0;entryDy=0;" parent="1" source="KtMn4eeaHGcOfa2TcQQD-29" target="KtMn4eeaHGcOfa2TcQQD-30" edge="1">
          <mxGeometry relative="1" as="geometry" />
        </mxCell>
        <mxCell id="KtMn4eeaHGcOfa2TcQQD-29" value="Mayor eficiencia en la venta" style="rounded=0;whiteSpace=wrap;html=1;fillColor=#6d8764;strokeColor=#3A5431;fontSize=16;fontColor=#ffffff;" parent="1" vertex="1">
          <mxGeometry x="710" y="230" width="160" height="60" as="geometry" />
        </mxCell>
        <mxCell id="KtMn4eeaHGcOfa2TcQQD-30" value="Clientes Satisfechos" style="rounded=0;whiteSpace=wrap;html=1;fillColor=#b0e3e6;strokeColor=#0e8088;fontSize=16;" parent="1" vertex="1">
          <mxGeometry x="590" y="130" width="160" height="60" as="geometry" />
        </mxCell>
        <mxCell id="KtMn4eeaHGcOfa2TcQQD-31" value="Excelente ambiente laboral" style="rounded=0;whiteSpace=wrap;html=1;fillColor=#b0e3e6;strokeColor=#0e8088;fontSize=16;" parent="1" vertex="1">
          <mxGeometry x="120" y="130" width="160" height="60" as="geometry" />
        </mxCell>
        <mxCell id="4drybY1Ocji3Iah6ORcE-1" value="LA CASA DE LA AMAROK" style="text;html=1;strokeColor=none;fillColor=none;align=center;verticalAlign=middle;whiteSpace=wrap;rounded=0;fontSize=19;fontColor=#994C00;" vertex="1" parent="1">
          <mxGeometry x="260" y="50" width="320" height="30" as="geometry" />
        </mxCell>
      </root>
    </mxGraphModel>
  </diagram>
</mxfile>
